<?xml version='1.0' encoding='utf-8'?>
<svg xmlns="http://www.w3.org/2000/svg" id="svg" version="1.1" viewBox="28 52 244 60"><defs><clipPath id="clip-1"><rect x="0" y="0" transform="scale(0.14648,0.14651)" width="2048" height="1116" fill="none" /></clipPath><linearGradient x1="41.44087" y1="80.83537" x2="66.8915" y2="93.24012" gradientUnits="userSpaceOnUse" id="color-1"><stop offset="0" stop-color="#008fa8" /><stop offset="1" stop-color="#20b2c9" /></linearGradient><linearGradient x1="91.03872" y1="88.63956" x2="107.26362" y2="104.39387" gradientUnits="userSpaceOnUse" id="color-2"><stop offset="0" stop-color="#0881ba" /><stop offset="1" stop-color="#1ab4ff" /></linearGradient><linearGradient x1="73.58657" y1="79.34834" x2="76.94502" y2="82.35199" gradientUnits="userSpaceOnUse" id="color-3"><stop offset="0" stop-color="#046192" /><stop offset="1" stop-color="#0c92cf" /></linearGradient></defs><g clip-path="url(#clip-1)" fill="none" fill-rule="nonzero" stroke="none" stroke-width="1" stroke-linecap="butt" stroke-linejoin="miter" stroke-miterlimit="10" stroke-dasharray="" stroke-dashoffset="0" font-family="none" font-weight="none" font-size="none" text-anchor="none" style="mix-blend-mode: normal"><path d="M33.57539,97.21555c0.95391,-3.45665 5.97056,-10.40335 8.10879,-13.80535l5.7542,-9.0448c1.5,-2.38306 4.09395,-6.95505 6.09463,-8.63063c2.07319,-1.75909 4.76631,-2.61131 7.47393,-2.36474c4.16895,0.39117 6.39229,3.04966 8.85718,5.99266l-4.92349,5.56457c-2.5311,-2.81759 -5.1876,-7.02757 -7.9623,-1.92025c-0.73535,1.35342 -1.82095,2.93245 -2.66206,4.25056c0.675,0.75084 1.39849,1.51487 1.9834,2.33383c0.80698,0.81882 1.46528,1.58416 2.21338,2.45865l-5.08989,5.69686c-0.44561,-0.52141 -1.30239,-1.47047 -1.66846,-1.99306c-0.22119,-0.12658 -1.48945,-1.60555 -1.74521,-1.89549c-1.39424,2.20652 -9.26719,14.05499 -9.28931,15.39259c-0.00923,0.55174 0.25093,1.12355 0.62783,1.51926c0.41016,0.43073 0.92402,0.5595 1.50337,0.55965c0.57144,0.00015 0.98379,-0.24129 1.40142,-0.60624c2.21719,-1.93739 4.29023,-4.66502 6.27964,-6.88297l12.72803,-14.10788c1.7127,-1.88816 3.84287,-4.48761 5.60742,-6.213c1.69409,-0.6959 3.39404,-4.47735 4.8873,-4.60525c1.12749,0.70513 0.98584,5.31829 0.92417,6.56461c-0.01025,0.20613 0.25151,0.77413 0.3375,0.99331c-0.19277,0.50412 -0.39346,1.09967 -0.52617,1.62431c-0.55283,0.7189 -3.04395,3.35043 -3.24067,3.82482c-0.47051,0.21741 -3.1207,3.31732 -3.62798,3.88781l-12.25386,13.80403c-2.3644,2.66361 -7.38838,9.40374 -11.19741,9.05345c-1.09307,0.21595 -2.09312,0.19222 -3.18779,-0.02491c-2.47603,-0.49343 -4.65366,-1.95248 -6.05186,-4.05498c-1.5397,-2.29882 -1.86533,-4.71557 -1.35571,-7.37142z" fill="#141413" /><path d="M33.57539,97.21555c0.51328,2.662 0.82749,3.82584 3.01333,5.55651c2.01416,1.59471 5.25396,1.05557 5.76401,1.37261c-0.94336,0.27939 -3.74971,-0.11794 -4.74155,-0.53636c-0.33677,-0.14226 -1.51904,-1.10055 -1.84219,-1.09718c-0.35361,0.41842 -0.70547,0.81208 -1.00151,1.27357c1.55684,2.45177 3.15088,3.74014 6.07251,4.55383c1.04854,0.29213 2.53198,-0.01113 3.33076,0.32832c-1.09307,0.21595 -2.09312,0.19222 -3.18779,-0.02491c-2.47603,-0.49343 -4.65366,-1.95248 -6.05186,-4.05498c-1.5397,-2.29882 -1.86533,-4.71557 -1.35571,-7.37142z" fill="#141413" /><path d="M56.29966,79.59139c0.80698,0.81882 1.46528,1.58416 2.21338,2.45865l-5.08989,5.69686c-0.44561,-0.52141 -1.30239,-1.47047 -1.66846,-1.99306l0.20728,-0.08556c0.48955,0.51145 0.98555,1.0166 1.48784,1.51545c1.51729,-1.20149 0.8814,-2.13488 1.53193,-2.78683c1.0916,-1.09425 1.74741,-0.81677 3.2127,-2.31376c-0.58711,-0.60683 -1.7647,-1.72979 -1.89478,-2.49176z" fill="#141413" /><path d="M93.01919,61.63364c5.51821,-1.45773 11.09546,-2.73731 16.61221,-4.20719c0.62637,-0.16702 2.14087,-0.66059 2.69722,-0.41593l-0.03867,0.38883l-2.02954,12.42761c-0.34248,2.11437 -0.82485,4.69447 -1.07065,6.78115l-4.97153,-4.76304c-6.18193,6.54073 -12.32329,13.11985 -18.42349,19.73706c-2.62017,2.81891 -5.50034,6.22868 -8.39971,8.75223c-1.4001,1.21849 -4.20264,1.94251 -5.99531,1.99306c-4.90313,0.11003 -7.44463,-2.63036 -10.40083,-6.02943c1.73408,-1.92274 3.45806,-3.8547 5.17192,-5.79561c0.63882,0.69414 1.46528,1.53699 2.05664,2.24197c1.68574,2.00903 3.14414,2.94915 5.2188,0.69956c3.68716,-3.99755 7.23882,-8.10644 10.88452,-12.14119c0.25283,-0.27968 0.99053,-1.15036 1.25288,-1.32822c0.91553,-1.26332 3.1645,-3.61326 4.31558,-4.88068l8.15127,-8.91646c-1.52695,-1.4759 -3.43184,-3.1043 -5.0313,-4.54372z" fill="#141413" /><path d="M93.01919,61.63364c5.51821,-1.45773 11.09546,-2.73731 16.61221,-4.20719c0.62637,-0.16702 2.14087,-0.66059 2.69722,-0.41593l-0.03867,0.38883l-0.16421,-0.28481c-0.48926,0.33183 -3.41821,3.72314 -4.00181,4.35414l-13.82124,15.00772c-0.7541,0.81647 -5.27681,5.75092 -5.925,6.22706c0.00908,-0.34971 1.96333,-2.29134 2.38726,-2.7294c-0.81328,-1.30976 -1.2189,-1.87966 -1.75649,-3.31044c-0.82778,0.77692 -2.74438,3.09244 -3.4248,3.31087c0.91553,-1.26332 3.1645,-3.61326 4.31558,-4.88068l8.15127,-8.91646c-1.52695,-1.4759 -3.43184,-3.1043 -5.0313,-4.54372z" fill="#141413" /><path d="M121.60078,66.24973c1.74844,0.03091 3.57993,-0.00073 5.33569,-0.00718c3.17285,5.25647 6.43374,10.52539 9.54814,15.81086c3.12715,-5.06982 6.28169,-10.64581 9.33457,-15.80881l5.3395,0.00894l0.00293,25.74554l-5.8103,0.00352l0.00439,-5.89406l-0.00732,-9.28595c-2.37979,3.61546 -5.19111,8.72073 -7.43818,12.54804l-2.98667,0.00147l-7.47568,-12.34879l-0.00278,14.97285l-5.86201,0.00498z" fill="#141413" transform="translate(0,3.5500)" /><path d="M98.77632,80.38223c0.37559,0.41095 2.57388,3.92444 2.91006,4.56511c2.30376,4.39077 7.45532,9.54321 7.27969,14.69009c-0.07969,2.56736 -1.19238,4.99378 -3.08584,6.72914c-1.86401,1.70151 -4.3314,2.58611 -6.85181,2.4569c-4.30811,-0.23646 -6.10767,-2.60281 -8.69971,-5.47476l-4.05688,-4.50782c-0.73037,-0.76447 -1.47568,-1.61888 -2.18848,-2.40826l5.02485,-5.54684c1.61777,1.68423 8.3231,9.92633 9.91963,10.3569c0.54097,0.14592 1.1373,0.08512 1.61953,-0.20804c0.44897,-0.27294 0.77446,-0.76373 0.89854,-1.26962c0.09097,-0.37066 0.08745,-0.77311 -0.04702,-1.13219c-0.55898,-1.49172 -1.71577,-2.99296 -2.56479,-4.33861c-1.74712,-2.7691 -3.53394,-5.51856 -5.20107,-8.33674c1.58101,-1.8426 3.39961,-3.76724 5.04331,-5.57526z" fill="#141413" /><path d="M256.02246,72.14159c0.16406,-0.0189 0.32813,-0.03121 0.49219,-0.03707c2.7334,-0.07325 5.85352,0.38941 7.88232,2.38467c2.48877,2.45001 2.34521,5.87413 2.32471,9.08846c-0.01758,2.79444 -0.00732,5.60119 -0.00293,8.40076l-5.51953,-0.0041l-0.01172,-2.13576c-3.15381,3.49313 -8.81689,3.15617 -12.18164,0.17244c-0.83057,-1.05293 -1.40625,-2.3416 -1.37549,-3.69311c0.15527,-6.85718 8.6499,-6.03426 13.1792,-6.02005c-0.99756,-5.39858 -6.7998,-3.89514 -10.26709,-1.87058l-2.05664,-3.93162c2.54004,-1.64218 4.57324,-2.10587 7.53662,-2.35405z" fill="#141413" transform="translate(0,3.5500)" /><path d="M255.53027,83.82393c1.47803,-0.08512 3.68701,-0.02813 5.21631,-0.03003c0.0542,2.37676 -0.17432,3.16862 -2.3584,4.29979c-4.92041,1.29833 -6.93604,-2.97508 -2.85791,-4.26975z" fill="#ffffff" transform="translate(0,3.5500)" /><path d="M163.36963,72.14159c2.66016,-0.29535 6.37354,0.43878 8.26465,2.38511c2.32617,2.39258 2.23828,5.5338 2.21045,8.60719c-0.02637,2.95721 -0.01465,5.89494 -0.00439,8.83882l-5.43604,-0.0085l-0.04687,-2.15202l-0.08643,0.09933c-3.0791,3.43965 -8.87549,3.01904 -12.13184,0.05933c-1.4502,-1.81696 -1.75342,-3.99213 -0.77344,-6.11836c1.53955,-3.32289 5.82715,-3.55422 9.00732,-3.51847c1.06934,0.01201 2.39063,0.15398 3.40723,-0.18972c0.14502,-0.04908 0.1582,-0.19529 0.22412,-0.34722c-0.18896,-1.30302 -1.37109,-2.62201 -2.67041,-2.94183c-2.85645,-0.70279 -5.15479,0.2262 -7.60107,1.55017l-2.11816,-3.91418c2.65869,-1.67133 4.6875,-2.10733 7.75488,-2.34965z" fill="#141413" transform="translate(0,3.5500)" /><path d="M162.63281,83.83814c1.5835,-0.10783 3.7207,-0.0463 5.34375,-0.04615c0.00879,0.88797 -0.03662,1.46022 -0.12158,2.3309c-0.8042,1.18581 -1.01367,1.38037 -2.3335,2.00903c-4.48389,1.27972 -7.12207,-2.76031 -2.88867,-4.29378z" fill="#ffffff" transform="translate(0,3.5500)" /><path d="M189.65625,72.13895c0.14648,-0.01626 0.29297,-0.02535 0.44092,-0.02725c6.99316,-0.02857 8.72021,4.66341 8.47998,10.64318c-0.11865,2.93934 -0.00879,6.25256 -0.01025,9.22237l-5.9209,0.00601c0.01465,-2.6809 0.41895,-10.55439 -0.38525,-12.62012c-0.35303,-0.90291 -0.98584,-1.67705 -1.88965,-2.0647c-1.31836,-0.56668 -2.84326,-0.20657 -4.11328,0.31132c-1.85303,1.39737 -2.15479,3.02695 -2.16211,5.26584c-0.01025,3.03266 0.01318,6.06649 0.02783,9.0993l-5.89453,0.00147l-0.00293,-19.58249l5.61914,0.00776l-0.00439,2.375c1.76953,-1.89827 3.31934,-2.39976 5.81543,-2.63768z" fill="#141413" transform="translate(0,3.5500)" /><path d="M202.72412,72.39563l5.90918,-0.00381l-0.03662,7.10141c-0.01318,2.95721 -0.53613,7.57169 3.70752,7.78574c3.36621,0.1698 4.68457,-2.40635 4.66699,-5.42583c-0.01904,-3.1254 -0.01758,-6.30544 -0.03516,-9.45399l5.86816,0.00088l-0.00586,7.22565l0.00146,12.33663l-5.41553,0.00601l-0.09375,-2.27772c-5.34668,5.30232 -14.58984,2.33515 -14.56934,-5.74667c0.00879,-3.83185 -0.01318,-7.70897 0.00293,-11.54829z" fill="#141413" transform="translate(0,3.5500)" /><path d="M241.59961,72.40266l5.84473,0.00601c-0.73535,1.68027 -1.45752,3.36581 -2.16797,5.05649l-6.11572,14.52059h-6.20068c-2.76709,-6.43964 -5.6792,-13.09905 -8.30566,-19.58103l6.16113,-0.00205c1.7666,4.3704 3.5625,8.72908 5.38477,13.07619z" fill="#141413" transform="translate(0,3.5500)" /><path d="M68.86787,73.51977c1.16133,-1.44703 2.41465,-2.80162 3.61875,-4.19855c2.61167,-3.03002 4.61279,-5.49395 8.86333,-5.94343c2.64331,-0.29448 5.29292,0.49651 7.34224,2.19187c1.51172,1.23299 2.36455,2.67402 3.3564,4.32103c-1.57778,1.53845 -3.64365,3.86584 -5.13193,5.5675c-1.6103,-2.60325 -3.76743,-7.14214 -6.97119,-3.49562c-1.29229,1.47091 -2.59614,2.96966 -3.90981,4.41846l-1.54497,1.71572c0.13271,-0.52464 0.3334,-1.12018 0.52617,-1.62431c-0.08599,-0.21917 -0.34775,-0.78717 -0.3375,-0.99331c0.06167,-1.24632 0.20332,-5.85948 -0.92417,-6.56461c-1.49326,0.1279 -3.19321,3.90935 -4.8873,4.60525z" fill="#141413" /><path d="M74.49067,78.09674l1.54497,-1.71572c1.29873,1.46769 2.65503,2.96278 3.91025,4.4605l1.04736,1.23812l-4.87603,5.4459c-0.27715,-0.32319 -1.38984,-1.57405 -1.5854,-1.85945c-1.07344,-1.16486 -2.22964,-2.54172 -3.28184,-3.74453c0.19673,-0.47438 2.68784,-3.10591 3.24067,-3.82482z" fill="#141413" /><path d="M79.9459,80.84152l1.04736,1.23812l-4.87603,5.4459c-0.27715,-0.32319 -1.38984,-1.57405 -1.5854,-1.85945c0.33003,-0.43453 0.12056,-1.09762 0.58594,-1.45407l0.29312,0.53724c0.22896,-0.25301 0.96094,-0.81926 1.2624,-1.06348l-0.0605,0.03399c0.94028,-0.958 2.28633,-2.03716 3.33311,-2.87824z" fill="#141413" /></g></svg>